<mxfile host="app.diagrams.net" agent="Mozilla/5.0 (Windows NT 10.0; Win64; x64) AppleWebKit/537.36 (KHTML, like Gecko) Chrome/129.0.0.0 Safari/537.36" version="24.7.16">
  <diagram name="Страница — 1" id="COP3YeiflSUbqG7JWX19">
    <mxGraphModel dx="2000" dy="1793" grid="1" gridSize="10" guides="1" tooltips="1" connect="1" arrows="1" fold="1" page="1" pageScale="1" pageWidth="827" pageHeight="1169" math="0" shadow="0">
      <root>
        <mxCell id="0" />
        <mxCell id="1" parent="0" />
        <mxCell id="GRWipu_-bfJAVwmYfH7S-1" value="Student" style="swimlane;fontStyle=0;childLayout=stackLayout;horizontal=1;startSize=30;horizontalStack=0;resizeParent=1;resizeParentMax=0;resizeLast=0;collapsible=1;marginBottom=0;whiteSpace=wrap;html=1;" parent="1" vertex="1">
          <mxGeometry x="-30" y="320" width="140" height="130" as="geometry" />
        </mxCell>
        <mxCell id="GRWipu_-bfJAVwmYfH7S-11" value="" style="line;strokeWidth=1;rotatable=0;dashed=0;labelPosition=right;align=left;verticalAlign=middle;spacingTop=0;spacingLeft=6;points=[];portConstraint=eastwest;" parent="GRWipu_-bfJAVwmYfH7S-1" vertex="1">
          <mxGeometry y="30" width="140" height="10" as="geometry" />
        </mxCell>
        <mxCell id="GRWipu_-bfJAVwmYfH7S-12" value="+set_contacts()" style="text;strokeColor=none;fillColor=none;align=left;verticalAlign=middle;spacingLeft=4;spacingRight=4;overflow=hidden;points=[[0,0.5],[1,0.5]];portConstraint=eastwest;rotatable=0;whiteSpace=wrap;html=1;" parent="GRWipu_-bfJAVwmYfH7S-1" vertex="1">
          <mxGeometry y="40" width="140" height="30" as="geometry" />
        </mxCell>
        <mxCell id="GRWipu_-bfJAVwmYfH7S-14" value="+validate?" style="text;strokeColor=none;fillColor=none;align=left;verticalAlign=middle;spacingLeft=4;spacingRight=4;overflow=hidden;points=[[0,0.5],[1,0.5]];portConstraint=eastwest;rotatable=0;whiteSpace=wrap;html=1;" parent="GRWipu_-bfJAVwmYfH7S-1" vertex="1">
          <mxGeometry y="70" width="140" height="30" as="geometry" />
        </mxCell>
        <mxCell id="WEirmikSpDnc1sAByxl1-1" value="+full_name" style="text;strokeColor=none;fillColor=none;align=left;verticalAlign=middle;spacingLeft=4;spacingRight=4;overflow=hidden;points=[[0,0.5],[1,0.5]];portConstraint=eastwest;rotatable=0;whiteSpace=wrap;html=1;" parent="GRWipu_-bfJAVwmYfH7S-1" vertex="1">
          <mxGeometry y="100" width="140" height="30" as="geometry" />
        </mxCell>
        <mxCell id="6jJPQ5KQef9q5ozzYbKQ-1" value="Person" style="swimlane;whiteSpace=wrap;html=1;" parent="1" vertex="1">
          <mxGeometry x="260" y="-200" width="200" height="300" as="geometry" />
        </mxCell>
        <mxCell id="yI4icTEkzBMkPABwZyiZ-1" value="-ID" style="text;strokeColor=none;fillColor=none;align=left;verticalAlign=middle;spacingLeft=4;spacingRight=4;overflow=hidden;points=[[0,0.5],[1,0.5]];portConstraint=eastwest;rotatable=0;whiteSpace=wrap;html=1;" vertex="1" parent="6jJPQ5KQef9q5ozzYbKQ-1">
          <mxGeometry x="20" y="30" width="140" height="30" as="geometry" />
        </mxCell>
        <mxCell id="yI4icTEkzBMkPABwZyiZ-2" value="- surname" style="text;strokeColor=none;fillColor=none;align=left;verticalAlign=middle;spacingLeft=4;spacingRight=4;overflow=hidden;points=[[0,0.5],[1,0.5]];portConstraint=eastwest;rotatable=0;whiteSpace=wrap;html=1;" vertex="1" parent="6jJPQ5KQef9q5ozzYbKQ-1">
          <mxGeometry x="20" y="60" width="140" height="30" as="geometry" />
        </mxCell>
        <mxCell id="yI4icTEkzBMkPABwZyiZ-3" value="-name" style="text;strokeColor=none;fillColor=none;align=left;verticalAlign=middle;spacingLeft=4;spacingRight=4;overflow=hidden;points=[[0,0.5],[1,0.5]];portConstraint=eastwest;rotatable=0;whiteSpace=wrap;html=1;" vertex="1" parent="6jJPQ5KQef9q5ozzYbKQ-1">
          <mxGeometry x="20" y="90" width="140" height="30" as="geometry" />
        </mxCell>
        <mxCell id="yI4icTEkzBMkPABwZyiZ-4" value="-patronymic" style="text;strokeColor=none;fillColor=none;align=left;verticalAlign=middle;spacingLeft=4;spacingRight=4;overflow=hidden;points=[[0,0.5],[1,0.5]];portConstraint=eastwest;rotatable=0;whiteSpace=wrap;html=1;" vertex="1" parent="6jJPQ5KQef9q5ozzYbKQ-1">
          <mxGeometry x="20" y="120" width="140" height="30" as="geometry" />
        </mxCell>
        <mxCell id="yI4icTEkzBMkPABwZyiZ-5" value="-group" style="text;strokeColor=none;fillColor=none;align=left;verticalAlign=middle;spacingLeft=4;spacingRight=4;overflow=hidden;points=[[0,0.5],[1,0.5]];portConstraint=eastwest;rotatable=0;whiteSpace=wrap;html=1;" vertex="1" parent="6jJPQ5KQef9q5ozzYbKQ-1">
          <mxGeometry x="20" y="150" width="140" height="30" as="geometry" />
        </mxCell>
        <mxCell id="yI4icTEkzBMkPABwZyiZ-6" value="-number_phone" style="text;strokeColor=none;fillColor=none;align=left;verticalAlign=middle;spacingLeft=4;spacingRight=4;overflow=hidden;points=[[0,0.5],[1,0.5]];portConstraint=eastwest;rotatable=0;whiteSpace=wrap;html=1;" vertex="1" parent="6jJPQ5KQef9q5ozzYbKQ-1">
          <mxGeometry x="20" y="180" width="140" height="30" as="geometry" />
        </mxCell>
        <mxCell id="yI4icTEkzBMkPABwZyiZ-7" value="-telegram" style="text;strokeColor=none;fillColor=none;align=left;verticalAlign=middle;spacingLeft=4;spacingRight=4;overflow=hidden;points=[[0,0.5],[1,0.5]];portConstraint=eastwest;rotatable=0;whiteSpace=wrap;html=1;" vertex="1" parent="6jJPQ5KQef9q5ozzYbKQ-1">
          <mxGeometry x="20" y="210" width="140" height="30" as="geometry" />
        </mxCell>
        <mxCell id="yI4icTEkzBMkPABwZyiZ-8" value="-email" style="text;strokeColor=none;fillColor=none;align=left;verticalAlign=middle;spacingLeft=4;spacingRight=4;overflow=hidden;points=[[0,0.5],[1,0.5]];portConstraint=eastwest;rotatable=0;whiteSpace=wrap;html=1;" vertex="1" parent="6jJPQ5KQef9q5ozzYbKQ-1">
          <mxGeometry x="20" y="240" width="140" height="30" as="geometry" />
        </mxCell>
        <mxCell id="yI4icTEkzBMkPABwZyiZ-9" value="-git" style="text;strokeColor=none;fillColor=none;align=left;verticalAlign=middle;spacingLeft=4;spacingRight=4;overflow=hidden;points=[[0,0.5],[1,0.5]];portConstraint=eastwest;rotatable=0;whiteSpace=wrap;html=1;" vertex="1" parent="6jJPQ5KQef9q5ozzYbKQ-1">
          <mxGeometry x="20" y="270" width="140" height="30" as="geometry" />
        </mxCell>
        <mxCell id="yI4icTEkzBMkPABwZyiZ-10" value="Student_short" style="swimlane;whiteSpace=wrap;html=1;" vertex="1" parent="1">
          <mxGeometry x="670" y="320" width="200" height="200" as="geometry" />
        </mxCell>
      </root>
    </mxGraphModel>
  </diagram>
</mxfile>
